<svg width="14" height="17" viewBox="0 0 14 17" fill="none" xmlns="http://www.w3.org/2000/svg">
<path fill-rule="evenodd" clip-rule="evenodd" d="M8.72299 0.186925C8.78225 0.246029 8.82926 0.316241 8.86133 0.39354C8.89341 0.470839 8.90992 0.553707 8.90992 0.637398C8.90992 0.721088 8.89341 0.803956 8.86133 0.881255C8.82926 0.958555 8.78225 1.02877 8.72299 1.08787L1.53707 8.27252L8.72299 15.4572C8.84247 15.5766 8.90958 15.7387 8.90958 15.9076C8.90958 16.0766 8.84247 16.2386 8.72299 16.3581C8.60352 16.4776 8.44148 16.5447 8.27252 16.5447C8.10356 16.5447 7.94152 16.4776 7.82205 16.3581L0.186925 8.72299C0.127673 8.66389 0.0806622 8.59368 0.0485865 8.51638C0.0165108 8.43908 0 8.35621 0 8.27252C0 8.18883 0.0165108 8.10596 0.0485865 8.02866C0.0806622 7.95136 0.127673 7.88115 0.186925 7.82205L7.82205 0.186925C7.88115 0.127673 7.95136 0.0806622 8.02866 0.0485865C8.10596 0.0165108 8.18883 0 8.27252 0C8.35621 0 8.43908 0.0165108 8.51638 0.0485865C8.59368 0.0806622 8.66389 0.127673 8.72299 0.186925Z" fill="#737373"/>
<path fill-rule="evenodd" clip-rule="evenodd" d="M13.8131 0.186925C13.8723 0.246029 13.9193 0.316241 13.9514 0.39354C13.9835 0.470839 14 0.553707 14 0.637398C14 0.721088 13.9835 0.803956 13.9514 0.881255C13.9193 0.958555 13.8723 1.02877 13.8131 1.08787L6.62716 8.27252L13.8131 15.4572C13.8722 15.5163 13.9192 15.5866 13.9512 15.6638C13.9832 15.7411 13.9997 15.824 13.9997 15.9076C13.9997 15.9913 13.9832 16.0741 13.9512 16.1514C13.9192 16.2287 13.8722 16.299 13.8131 16.3581C13.7539 16.4173 13.6837 16.4642 13.6064 16.4962C13.5291 16.5282 13.4463 16.5447 13.3626 16.5447C13.2789 16.5447 13.1961 16.5282 13.1188 16.4962C13.0415 16.4642 12.9713 16.4173 12.9121 16.3581L5.27701 8.72299C5.21776 8.66389 5.17075 8.59368 5.13867 8.51638C5.1066 8.43908 5.09009 8.35621 5.09009 8.27252C5.09009 8.18883 5.1066 8.10596 5.13867 8.02866C5.17075 7.95136 5.21776 7.88115 5.27701 7.82205L12.9121 0.186925C12.9712 0.127673 13.0415 0.0806622 13.1188 0.0485865C13.1961 0.0165108 13.2789 0 13.3626 0C13.4463 0 13.5292 0.0165108 13.6065 0.0485865C13.6838 0.0806622 13.754 0.127673 13.8131 0.186925Z" fill="#737373"/>
</svg>
