<svg width="4" height="18" viewBox="0 0 4 18" fill="none" xmlns="http://www.w3.org/2000/svg">
<path fill-rule="evenodd" clip-rule="evenodd" d="M4 16C4 16.5304 3.78929 17.0391 3.41421 17.4142C3.03914 17.7893 2.53043 18 2 18C1.46957 18 0.960859 17.7893 0.585786 17.4142C0.210713 17.0391 -6.42368e-08 16.5304 -8.74228e-08 16C-1.10609e-07 15.4696 0.210713 14.9609 0.585786 14.5858C0.960859 14.2107 1.46957 14 2 14C2.53043 14 3.03914 14.2107 3.41421 14.5858C3.78929 14.9609 4 15.4696 4 16ZM4 9.33333C4 9.86377 3.78929 10.3725 3.41421 10.7475C3.03914 11.1226 2.53043 11.3333 2 11.3333C1.46957 11.3333 0.960859 11.1226 0.585786 10.7475C0.210713 10.3725 -3.55646e-07 9.86377 -3.78832e-07 9.33333C-4.02018e-07 8.8029 0.210713 8.29419 0.585786 7.91912C0.960858 7.54405 1.46957 7.33333 2 7.33333C2.53043 7.33333 3.03914 7.54405 3.41421 7.91912C3.78929 8.29419 4 8.8029 4 9.33333ZM4 2.66667C4 3.1971 3.78929 3.70581 3.41421 4.08088C3.03914 4.45595 2.53043 4.66667 2 4.66667C1.46957 4.66667 0.960858 4.45595 0.585786 4.08088C0.210713 3.70581 -6.47055e-07 3.1971 -6.70241e-07 2.66667C-6.93427e-07 2.13623 0.210713 1.62753 0.585785 1.25245C0.960858 0.87738 1.46957 0.666666 2 0.666666C2.53043 0.666666 3.03914 0.87738 3.41421 1.25245C3.78929 1.62753 4 2.13623 4 2.66667Z" fill="#4872F2"/>
</svg>
