<svg width="18" height="18" viewBox="0 0 18 18" fill="none" xmlns="http://www.w3.org/2000/svg">
<path d="M16.9577 10.7861L17.9805 5.16109C18.0132 4.98096 18.006 4.79582 17.9593 4.61879C17.9126 4.44175 17.8276 4.27713 17.7103 4.13656C17.593 3.99599 17.4462 3.88291 17.2804 3.80532C17.1146 3.72772 16.9337 3.6875 16.7506 3.6875H3.64615L3.26459 1.58891C3.21234 1.30084 3.06058 1.04026 2.83581 0.852668C2.61103 0.665075 2.32752 0.562377 2.03475 0.5625H0.624512C0.458751 0.5625 0.29978 0.628348 0.18257 0.745558C0.0653598 0.862769 -0.000488281 1.02174 -0.000488281 1.1875C-0.000488281 1.35326 0.0653598 1.51223 0.18257 1.62944C0.29978 1.74665 0.458751 1.8125 0.624512 1.8125H2.03467L4.12084 13.2861C4.13949 13.3876 4.17064 13.4864 4.21357 13.5802C3.90153 13.8439 3.66957 14.1897 3.54399 14.5784C3.41841 14.9672 3.40422 15.3833 3.50304 15.7797C3.60186 16.1761 3.80973 16.5369 4.1031 16.8212C4.39647 17.1055 4.7636 17.302 5.1629 17.3883C5.5622 17.4746 5.9777 17.4474 6.36231 17.3096C6.74692 17.1719 7.08527 16.9292 7.33901 16.6091C7.59275 16.2889 7.75174 15.9041 7.79796 15.4982C7.84418 15.0923 7.77579 14.6815 7.60053 14.3125H13.0235C12.8204 14.7407 12.7619 15.2233 12.8568 15.6877C12.9517 16.152 13.1948 16.573 13.5496 16.8872C13.9045 17.2014 14.3517 17.3919 14.8241 17.43C15.2966 17.468 15.7686 17.3516 16.1691 17.0982C16.5696 16.8449 16.877 16.4682 17.045 16.0251C17.213 15.5819 17.2325 15.0962 17.1006 14.6409C16.9687 14.1857 16.6925 13.7857 16.3135 13.501C15.9346 13.2163 15.4735 13.0624 14.9995 13.0625H5.35068L5.12334 11.8125H15.7279C16.0206 11.8126 16.3042 11.7099 16.5289 11.5223C16.7537 11.3347 16.9055 11.0742 16.9577 10.7861ZM6.56201 15.25C6.56201 15.4354 6.50703 15.6167 6.40402 15.7708C6.301 15.925 6.15458 16.0452 5.98328 16.1161C5.81197 16.1871 5.62347 16.2057 5.44161 16.1695C5.25976 16.1333 5.09271 16.044 4.9616 15.9129C4.83049 15.7818 4.7412 15.6148 4.70503 15.4329C4.66885 15.251 4.68742 15.0625 4.75838 14.8912C4.82933 14.7199 4.94949 14.5735 5.10367 14.4705C5.25784 14.3675 5.43909 14.3125 5.62451 14.3125C5.87307 14.3128 6.11137 14.4116 6.28713 14.5874C6.46289 14.7631 6.56174 15.0014 6.56201 15.25ZM15.937 15.25C15.937 15.4354 15.882 15.6167 15.779 15.7708C15.676 15.925 15.5296 16.0452 15.3583 16.1161C15.187 16.1871 14.9985 16.2057 14.8166 16.1695C14.6348 16.1333 14.4677 16.044 14.3366 15.9129C14.2055 15.7818 14.1162 15.6148 14.08 15.4329C14.0439 15.251 14.0624 15.0625 14.1334 14.8912C14.2043 14.7199 14.3245 14.5735 14.4787 14.4705C14.6328 14.3675 14.8141 14.3125 14.9995 14.3125C15.2481 14.3128 15.4864 14.4116 15.6621 14.5874C15.8379 14.7631 15.9367 15.0014 15.937 15.25ZM3.87342 4.9375H16.7506L15.728 10.5625H4.89607L3.87342 4.9375Z" fill="#4872F2"/>
</svg>
