<svg width="20" height="16" viewBox="0 0 20 16" fill="none" xmlns="http://www.w3.org/2000/svg">
<path fill-rule="evenodd" clip-rule="evenodd" d="M13.75 15.5C13.75 15.5 15 15.5 15 14.25C15 13 13.75 9.25 7.5 9.25C1.25 9.25 0 13 0 14.25C0 15.5 1.25 15.5 1.25 15.5H13.75ZM1.25625 14.32V14.3175V14.32ZM1.2775 14.25H13.7225C13.7284 14.2493 13.7342 14.2485 13.74 14.2475L13.75 14.245C13.7487 13.9375 13.5575 13.0125 12.71 12.165C11.895 11.35 10.3612 10.5 7.5 10.5C4.6375 10.5 3.105 11.35 2.29 12.165C1.4425 13.0125 1.2525 13.9375 1.25 14.245C1.25915 14.2468 1.26832 14.2484 1.2775 14.25ZM13.745 14.32V14.3175V14.32ZM7.5 6.75C8.16304 6.75 8.79893 6.48661 9.26777 6.01777C9.73661 5.54893 10 4.91304 10 4.25C10 3.58696 9.73661 2.95107 9.26777 2.48223C8.79893 2.01339 8.16304 1.75 7.5 1.75C6.83696 1.75 6.20107 2.01339 5.73223 2.48223C5.26339 2.95107 5 3.58696 5 4.25C5 4.91304 5.26339 5.54893 5.73223 6.01777C6.20107 6.48661 6.83696 6.75 7.5 6.75ZM11.25 4.25C11.25 5.24456 10.8549 6.19839 10.1517 6.90165C9.44839 7.60491 8.49456 8 7.5 8C6.50544 8 5.55161 7.60491 4.84835 6.90165C4.14509 6.19839 3.75 5.24456 3.75 4.25C3.75 3.25544 4.14509 2.30161 4.84835 1.59835C5.55161 0.895088 6.50544 0.5 7.5 0.5C8.49456 0.5 9.44839 0.895088 10.1517 1.59835C10.8549 2.30161 11.25 3.25544 11.25 4.25ZM19.8175 4.4325C19.8757 4.49056 19.9219 4.55953 19.9534 4.63546C19.9849 4.71139 20.0011 4.79279 20.0011 4.875C20.0011 4.95721 19.9849 5.03861 19.9534 5.11454C19.9219 5.19047 19.8757 5.25944 19.8175 5.3175L16.0675 9.0675C16.0094 9.1257 15.9405 9.17188 15.8645 9.20339C15.7886 9.2349 15.7072 9.25112 15.625 9.25112C15.5428 9.25112 15.4614 9.2349 15.3855 9.20339C15.3095 9.17188 15.2406 9.1257 15.1825 9.0675L13.3075 7.1925C13.1901 7.07514 13.1242 6.91597 13.1242 6.75C13.1242 6.58403 13.1901 6.42486 13.3075 6.3075C13.4249 6.19014 13.584 6.12421 13.75 6.12421C13.916 6.12421 14.0751 6.19014 14.1925 6.3075L15.625 7.74125L18.9325 4.4325C18.9906 4.3743 19.0595 4.32812 19.1355 4.29661C19.2114 4.2651 19.2928 4.24888 19.375 4.24888C19.4572 4.24888 19.5386 4.2651 19.6145 4.29661C19.6905 4.32812 19.7594 4.3743 19.8175 4.4325Z" fill="#3C3C3C"/>
</svg>
