<svg width="20" height="20" viewBox="0 0 20 20" fill="none" xmlns="http://www.w3.org/2000/svg">
<g clip-path="url(#clip0)">
<path fill-rule="evenodd" clip-rule="evenodd" d="M17.5 3.75H2.5C2.16848 3.75 1.85054 3.8817 1.61612 4.11612C1.3817 4.35054 1.25 4.66848 1.25 5V15C1.25 15.3315 1.3817 15.6495 1.61612 15.8839C1.85054 16.1183 2.16848 16.25 2.5 16.25H17.5C17.8315 16.25 18.1495 16.1183 18.3839 15.8839C18.6183 15.6495 18.75 15.3315 18.75 15V5C18.75 4.66848 18.6183 4.35054 18.3839 4.11612C18.1495 3.8817 17.8315 3.75 17.5 3.75ZM2.5 2.5C1.83696 2.5 1.20107 2.76339 0.732233 3.23223C0.263392 3.70107 0 4.33696 0 5L0 15C0 15.663 0.263392 16.2989 0.732233 16.7678C1.20107 17.2366 1.83696 17.5 2.5 17.5H17.5C18.163 17.5 18.7989 17.2366 19.2678 16.7678C19.7366 16.2989 20 15.663 20 15V5C20 4.33696 19.7366 3.70107 19.2678 3.23223C18.7989 2.76339 18.163 2.5 17.5 2.5H2.5Z" fill="#E73C3E"/>
<path d="M5 11.25H3.75C3.05964 11.25 2.5 11.8096 2.5 12.5V13.75C2.5 14.4404 3.05964 15 3.75 15H5C5.69036 15 6.25 14.4404 6.25 13.75V12.5C6.25 11.8096 5.69036 11.25 5 11.25Z" fill="#E73C3E"/>
<path d="M1.25 6.25H18.75V8.75H1.25V6.25Z" fill="#E73C3E"/>
</g>
<defs>
<clipPath id="clip0">
<rect width="20" height="20" fill="white"/>
</clipPath>
</defs>
</svg>
