<svg width="20" height="20" viewBox="0 0 20 20" fill="none" xmlns="http://www.w3.org/2000/svg">
<g clip-path="url(#clip0)">
<path fill-rule="evenodd" clip-rule="evenodd" d="M18.125 3.75H1.875C1.70924 3.75 1.55027 3.81585 1.43306 3.93306C1.31585 4.05027 1.25 4.20924 1.25 4.375V15.625C1.25 15.7908 1.31585 15.9497 1.43306 16.0669C1.55027 16.1842 1.70924 16.25 1.875 16.25H18.125C18.2908 16.25 18.4497 16.1842 18.5669 16.0669C18.6842 15.9497 18.75 15.7908 18.75 15.625V4.375C18.75 4.20924 18.6842 4.05027 18.5669 3.93306C18.4497 3.81585 18.2908 3.75 18.125 3.75ZM1.875 2.5C1.37772 2.5 0.900805 2.69754 0.549175 3.04917C0.197544 3.40081 0 3.87772 0 4.375L0 15.625C0 16.1223 0.197544 16.5992 0.549175 16.9508C0.900805 17.3025 1.37772 17.5 1.875 17.5H18.125C18.6223 17.5 19.0992 17.3025 19.4508 16.9508C19.8025 16.5992 20 16.1223 20 15.625V4.375C20 3.87772 19.8025 3.40081 19.4508 3.04917C19.0992 2.69754 18.6223 2.5 18.125 2.5H1.875Z" fill="#737373"/>
<path fill-rule="evenodd" clip-rule="evenodd" d="M8.75 6.87514C8.75 6.70938 8.81584 6.55041 8.93305 6.4332C9.05026 6.31599 9.20924 6.25014 9.375 6.25014H15.625C15.7908 6.25014 15.9497 6.31599 16.0669 6.4332C16.1841 6.55041 16.25 6.70938 16.25 6.87514C16.25 7.0409 16.1841 7.19987 16.0669 7.31708C15.9497 7.43429 15.7908 7.50014 15.625 7.50014H9.375C9.20924 7.50014 9.05026 7.43429 8.93305 7.31708C8.81584 7.19987 8.75 7.0409 8.75 6.87514ZM6.88 5.80764C6.9382 5.8657 6.98438 5.93467 7.01589 6.0106C7.04739 6.08653 7.06361 6.16793 7.06361 6.25014C7.06361 6.33235 7.04739 6.41375 7.01589 6.48968C6.98438 6.56561 6.9382 6.63458 6.88 6.69264L5.005 8.56764C4.94694 8.62584 4.87797 8.67202 4.80204 8.70353C4.72611 8.73504 4.64471 8.75126 4.5625 8.75126C4.48029 8.75126 4.39889 8.73504 4.32295 8.70353C4.24702 8.67202 4.17805 8.62584 4.12 8.56764L3.495 7.94264C3.43689 7.88453 3.39079 7.81554 3.35934 7.73962C3.32789 7.6637 3.31171 7.58232 3.31171 7.50014C3.31171 7.33417 3.37764 7.175 3.495 7.05764C3.61235 6.94028 3.77153 6.87435 3.9375 6.87435C4.10347 6.87435 4.26264 6.94028 4.38 7.05764L4.5625 7.24139L5.995 5.80764C6.05305 5.74944 6.12202 5.70326 6.19795 5.67175C6.27389 5.64024 6.35529 5.62402 6.4375 5.62402C6.51971 5.62402 6.60111 5.64024 6.67704 5.67175C6.75297 5.70326 6.82194 5.74944 6.88 5.80764ZM8.75 11.8751C8.75 11.7094 8.81584 11.5504 8.93305 11.4332C9.05026 11.316 9.20924 11.2501 9.375 11.2501H15.625C15.7908 11.2501 15.9497 11.316 16.0669 11.4332C16.1841 11.5504 16.25 11.7094 16.25 11.8751C16.25 12.0409 16.1841 12.1999 16.0669 12.3171C15.9497 12.4343 15.7908 12.5001 15.625 12.5001H9.375C9.20924 12.5001 9.05026 12.4343 8.93305 12.3171C8.81584 12.1999 8.75 12.0409 8.75 11.8751ZM6.88 10.8076C6.9382 10.8657 6.98438 10.9347 7.01589 11.0106C7.04739 11.0865 7.06361 11.1679 7.06361 11.2501C7.06361 11.3323 7.04739 11.4138 7.01589 11.4897C6.98438 11.5656 6.9382 11.6346 6.88 11.6926L5.005 13.5676C4.94694 13.6258 4.87797 13.672 4.80204 13.7035C4.72611 13.735 4.64471 13.7513 4.5625 13.7513C4.48029 13.7513 4.39889 13.735 4.32295 13.7035C4.24702 13.672 4.17805 13.6258 4.12 13.5676L3.495 12.9426C3.43689 12.8845 3.39079 12.8155 3.35934 12.7396C3.32789 12.6637 3.31171 12.5823 3.31171 12.5001C3.31171 12.418 3.32789 12.3366 3.35934 12.2607C3.39079 12.1847 3.43689 12.1157 3.495 12.0576C3.55311 11.9995 3.62209 11.9534 3.69802 11.922C3.77394 11.8905 3.85532 11.8744 3.9375 11.8744C4.01968 11.8744 4.10105 11.8905 4.17698 11.922C4.2529 11.9534 4.32189 11.9995 4.38 12.0576L4.5625 12.2414L5.995 10.8076C6.05305 10.7494 6.12202 10.7033 6.19795 10.6717C6.27389 10.6402 6.35529 10.624 6.4375 10.624C6.51971 10.624 6.60111 10.6402 6.67704 10.6717C6.75297 10.7033 6.82194 10.7494 6.88 10.8076Z" fill="#737373"/>
</g>
<defs>
<clipPath id="clip0">
<rect width="20" height="20" fill="white"/>
</clipPath>
</defs>
</svg>
