<svg width="20" height="20" viewBox="0 0 20 20" fill="none" xmlns="http://www.w3.org/2000/svg">
<path fill-rule="evenodd" clip-rule="evenodd" d="M3.3475 14.8675C3.47725 14.9977 3.57667 15.155 3.63868 15.3281C3.70069 15.5011 3.72376 15.6857 3.70625 15.8687C3.6184 16.7157 3.45185 17.5527 3.20875 18.3687C4.9525 17.965 6.0175 17.4975 6.50125 17.2525C6.77563 17.1135 7.09161 17.0806 7.38875 17.16C8.24054 17.3871 9.11846 17.5014 10 17.5C14.995 17.5 18.75 13.9913 18.75 10C18.75 6.01 14.995 2.5 10 2.5C5.005 2.5 1.25 6.01 1.25 10C1.25 11.835 2.02125 13.5375 3.3475 14.8675ZM2.73125 19.7487C2.43509 19.8075 2.13796 19.8612 1.84 19.91C1.59 19.95 1.4 19.69 1.49875 19.4575C1.60974 19.1957 1.71147 18.9302 1.80375 18.6612L1.8075 18.6488C2.1175 17.7487 2.37 16.7138 2.4625 15.75C0.92875 14.2125 0 12.2 0 10C0 5.1675 4.4775 1.25 10 1.25C15.5225 1.25 20 5.1675 20 10C20 14.8325 15.5225 18.75 10 18.75C9.00956 18.7513 8.02323 18.6227 7.06625 18.3675C6.41625 18.6963 5.0175 19.295 2.73125 19.7487Z" fill="#737373"/>
<path d="M9.335 9.58375C9.335 10.7337 8.365 11.6663 7.1675 11.6663C5.97 11.6663 5 10.7337 5 9.58375C5 8.43375 5.97 7.5 7.1675 7.5C8.365 7.5 9.335 8.4325 9.335 9.58375Z" fill="#737373"/>
<path fill-rule="evenodd" clip-rule="evenodd" d="M7.69628 8.66974C7.67569 8.74061 7.64098 8.80657 7.59425 8.86368C7.54752 8.92079 7.48973 8.96787 7.42434 9.00208C7.35896 9.03628 7.28734 9.05692 7.21378 9.06275C7.14021 9.06858 7.06623 9.05948 6.99628 9.036C6.92987 9.01626 6.86811 8.98336 6.81468 8.93926C6.76125 8.89515 6.71724 8.84075 6.68528 8.77928C6.65333 8.71781 6.63407 8.65053 6.62865 8.58146C6.62324 8.51239 6.63178 8.44294 6.65378 8.37725C6.75378 8.08975 6.94128 7.82725 7.25003 7.69475C7.38915 7.63877 7.53814 7.61147 7.68806 7.61448C7.83799 7.61749 7.98577 7.65074 8.12253 7.71225C8.60628 7.91225 9.02253 8.39349 9.27628 8.95849C9.81128 10.1435 9.76753 11.9297 8.09878 13.591C7.99692 13.6903 7.86098 13.7469 7.71876 13.7492C7.57655 13.7515 7.43882 13.6994 7.33378 13.6035C7.28256 13.5571 7.24138 13.5007 7.21278 13.4378C7.18418 13.3749 7.16876 13.3068 7.16747 13.2377C7.16619 13.1686 7.17906 13.1 7.20529 13.0361C7.23153 12.9721 7.27058 12.9143 7.32003 12.866C8.68628 11.5072 8.64253 10.1685 8.28253 9.37349C8.09253 8.9535 7.84003 8.73099 7.69503 8.66974H7.69628ZM7.65253 8.65474H7.65128H7.65253Z" fill="#737373"/>
<path d="M14.7538 9.58375C14.7538 10.7337 13.7838 11.6663 12.5863 11.6663C11.39 11.6663 10.4188 10.7337 10.4188 9.58375C10.4188 8.43375 11.39 7.5 12.5863 7.5C13.7838 7.5 14.7538 8.4325 14.7538 9.58375Z" fill="#737373"/>
<path fill-rule="evenodd" clip-rule="evenodd" d="M13.115 8.66975C13.0944 8.74061 13.0597 8.80657 13.013 8.86368C12.9662 8.92079 12.9084 8.96787 12.843 9.00208C12.7777 9.03629 12.706 9.05692 12.6325 9.06275C12.5589 9.06858 12.4849 9.05948 12.415 9.036C12.3486 9.01626 12.2868 8.98336 12.2334 8.93926C12.18 8.89515 12.1359 8.84075 12.104 8.77928C12.072 8.71781 12.0528 8.65053 12.0474 8.58146C12.0419 8.51239 12.0505 8.44294 12.0725 8.37725C12.1725 8.08975 12.36 7.82725 12.6687 7.69475C12.8079 7.63877 12.9568 7.61147 13.1068 7.61448C13.2567 7.61749 13.4045 7.65074 13.5412 7.71225C14.025 7.91225 14.4412 8.3935 14.6962 8.9585C15.2312 10.1435 15.1862 11.9297 13.5187 13.591C13.4168 13.6906 13.2806 13.7475 13.1381 13.7498C12.9956 13.7521 12.8576 13.6998 12.7525 13.6035C12.7013 13.5571 12.6601 13.5007 12.6315 13.4378C12.6029 13.3749 12.5875 13.3068 12.5862 13.2377C12.5849 13.1686 12.5978 13.1 12.624 13.0361C12.6502 12.9721 12.6893 12.9143 12.7387 12.866C14.105 11.5072 14.0612 10.1685 13.7012 9.3735C13.5112 8.9535 13.2587 8.731 13.115 8.66975ZM13.0725 8.65475H13.07H13.0725Z" fill="#737373"/>
</svg>
