<svg width="20" height="20" viewBox="0 0 20 20" fill="none" xmlns="http://www.w3.org/2000/svg">
<path fill-rule="evenodd" clip-rule="evenodd" d="M6.80375 2.48875C5.6606 2.79607 4.52487 3.13033 3.3975 3.49125C3.29547 3.52274 3.2044 3.58238 3.13475 3.66331C3.0651 3.74424 3.01969 3.84317 3.00375 3.94875C2.3375 8.82 3.875 12.375 5.70875 14.7162C6.62875 15.8912 7.625 16.7612 8.455 17.3325C8.87125 17.6175 9.2375 17.825 9.52625 17.9575C9.67125 18.0238 9.78875 18.0688 9.87875 18.095C9.91843 18.1078 9.95894 18.1178 10 18.125C10.0087 18.1238 10.0475 18.1187 10.1212 18.0963C10.2112 18.0688 10.3287 18.0238 10.4737 17.9575C10.7612 17.825 11.13 17.6175 11.545 17.3325C12.5858 16.6023 13.5114 15.7204 14.2912 14.7162C16.125 12.375 17.6625 8.82 16.9962 3.94875C16.9803 3.84317 16.9349 3.74424 16.8652 3.66331C16.7956 3.58238 16.7045 3.52274 16.6025 3.49125C15.82 3.24125 14.5 2.83375 13.1962 2.48875C11.8637 2.1375 10.6375 1.875 10 1.875C9.3625 1.875 8.1375 2.1375 6.80375 2.48875ZM6.48375 1.28125C7.7875 0.93625 9.17125 0.625 10 0.625C10.8275 0.625 12.2125 0.93625 13.5162 1.28125C14.6791 1.59347 15.8344 1.93315 16.9812 2.3C17.6412 2.51 18.1387 3.07875 18.235 3.78C18.9512 9.02625 17.29 12.9137 15.2762 15.4862C14.4181 16.5903 13.3993 17.5594 12.2537 18.3612C11.8554 18.6403 11.4344 18.8853 10.995 19.0938C10.6575 19.2487 10.2975 19.375 10 19.375C9.7025 19.375 9.3425 19.2487 9.005 19.0938C8.56554 18.8855 8.14445 18.6404 7.74625 18.3612C6.60117 17.5593 5.58278 16.5902 4.725 15.4862C2.70875 12.9137 1.04875 9.02625 1.765 3.78C1.81289 3.44009 1.95606 3.12069 2.17794 2.85877C2.39982 2.59685 2.69133 2.40312 3.01875 2.3C4.16556 1.93316 5.32088 1.59348 6.48375 1.28125Z" fill="#3C3C3C"/>
<path d="M10 2.8125C11.1363 2.8125 13.985 3.66875 15.3175 4.09C15.5322 4.15584 15.7236 4.28185 15.8689 4.4531C16.0143 4.62435 16.1075 4.83366 16.1375 5.05625C17.155 13.0862 10.975 16.8712 10 16.8712V2.8125Z" fill="#3C3C3C"/>
</svg>
