<svg width="9" height="17" viewBox="0 0 9 17" fill="none" xmlns="http://www.w3.org/2000/svg">
<path fill-rule="evenodd" clip-rule="evenodd" d="M8.81118 0.188815C8.87104 0.248516 8.91852 0.319438 8.95092 0.397519C8.98332 0.4756 9 0.559306 9 0.643842C9 0.728378 8.98332 0.812084 8.95092 0.890165C8.91852 0.968246 8.87104 1.03917 8.81118 1.09887L1.55261 8.35616L8.81118 15.6134C8.93187 15.7341 8.99966 15.8978 8.99966 16.0685C8.99966 16.2391 8.93187 16.4028 8.81118 16.5235C8.6905 16.6442 8.52683 16.712 8.35616 16.712C8.18549 16.712 8.02181 16.6442 7.90113 16.5235L0.188815 8.81118C0.128963 8.75148 0.0814771 8.68056 0.0490771 8.60248C0.0166771 8.5244 0 8.44069 0 8.35616C0 8.27162 0.0166771 8.18792 0.0490771 8.10983C0.0814771 8.03175 0.128963 7.96083 0.188815 7.90113L7.90113 0.188815C7.96083 0.128964 8.03175 0.0814777 8.10984 0.0490777C8.18792 0.0166777 8.27162 0 8.35616 0C8.44069 0 8.5244 0.0166777 8.60248 0.0490777C8.68056 0.0814777 8.75148 0.128964 8.81118 0.188815Z" fill="#737373"/>
</svg>
