<svg width="20" height="20" viewBox="0 0 20 20" fill="none" xmlns="http://www.w3.org/2000/svg">
<path d="M10.0984 19.9999C6.07672 19.9999 2.32634 17.7577 0.31676 14.1532C-0.336509 12.989 0.0542079 11.4904 1.18032 10.8201C2.31016 10.1474 3.75109 10.5461 4.40684 11.7103C5.57775 13.811 7.7578 15.1142 10.0984 15.1142C12.3593 15.1142 14.4323 13.941 15.6493 11.9689C16.3474 10.8343 17.8107 10.4985 18.9094 11.2254C20.0069 11.9522 20.3304 13.4586 19.6299 14.597C17.5407 17.979 13.9794 19.9999 10.0984 19.9999Z" fill="#FECD1C"/>
<path d="M5.21648 0C3.84897 0 2.73779 1.14846 2.73779 2.56343C2.73779 3.97839 3.84897 5.13199 5.21648 5.13199C6.58399 5.13199 7.69766 3.97839 7.69766 2.56343C7.69766 1.14846 6.58399 0 5.21648 0Z" fill="#FECD1C"/>
<path d="M14.9644 0C13.5968 0 12.4819 1.14846 12.4819 2.56343C12.4819 3.97839 13.5968 5.13199 14.9644 5.13199C16.3319 5.13199 17.4443 3.97839 17.4443 2.56343C17.4443 1.14846 16.3319 0 14.9644 0Z" fill="#FECD1C"/>
</svg>
