<svg width="17" height="16" viewBox="0 0 17 16" fill="none" xmlns="http://www.w3.org/2000/svg">
<path d="M8.93801 0L8.45214 1.0961L4.97752 8.92461L3.95676 7.65948L3.60514 8.38449L0.483208 14.8336L0 15.8333H16.6667L16.3481 14.9122L14.7498 10.2901L14.4398 9.39409L13.338 10.7596L9.39405 1.11591L8.93854 0H8.93801ZM8.89912 2.8274L10.5187 6.78656L10.1063 7.225L8.89166 5.93544L7.67751 7.225L7.18205 6.69742L8.89912 2.8274ZM8.89219 7.67401L10.1069 8.96357L11.0136 7.99953L12.7184 12.1693L13.0498 12.9835L14.0791 11.7078L15.0487 14.5127H1.88115C2.64299 12.9379 3.40589 11.3631 4.16826 9.78895L5.22738 11.1016L5.56941 10.3317C5.93221 9.51426 6.29555 8.69747 6.65782 7.88002L7.67751 8.96291L8.89219 7.67401Z" fill="#4872F2"/>
</svg>
