<svg width="20" height="20" viewBox="0 0 20 20" fill="none" xmlns="http://www.w3.org/2000/svg">
<g clip-path="url(#clip0)">
<path d="M19.1556 13.5574C19.6607 13.3618 20 12.8641 20 12.3188V9.79587C20 9.0481 19.3916 8.43971 18.6438 8.43971H18.5054C18.9159 7.90826 18.878 7.13979 18.3908 6.65257L16.6069 4.86861C16.2213 4.48308 15.6295 4.37104 15.134 4.58986C14.8679 4.70743 14.5508 4.6481 14.3451 4.44233C14.1393 4.23653 14.08 3.91947 14.1975 3.65339C14.4163 3.15798 14.3043 2.56606 13.9187 2.18049L12.1348 0.396529C11.6061 -0.132137 10.7457 -0.132216 10.2169 0.396529L2.17376 8.43971H1.35616C0.608353 8.43971 0 9.0481 0 9.79587V12.3188C0 12.8641 0.339333 13.3618 0.844392 13.5573C1.11565 13.6624 1.29792 13.9285 1.29792 14.2195C1.29792 14.5105 1.11565 14.7767 0.844392 14.8817C0.339333 15.0774 0 15.5751 0 16.1203V18.6432C0 19.391 0.608353 19.9994 1.35616 19.9994H18.6438C19.3916 19.9994 20 19.391 20 18.6432V16.1203C20 15.5751 19.6607 15.0774 19.1556 14.8817C18.8844 14.7767 18.7021 14.5105 18.7021 14.2195C18.7021 13.9285 18.8844 13.6624 19.1556 13.5574ZM11.0488 1.22849C11.1189 1.15841 11.2329 1.15841 11.3029 1.22845L13.0868 3.01241C13.1315 3.05708 13.1453 3.12363 13.1213 3.1781C12.809 3.8852 12.9665 4.72759 13.5131 5.27422C14.0598 5.82088 14.9022 5.97833 15.6093 5.66606C15.6637 5.64206 15.7303 5.65586 15.775 5.70053L17.5589 7.48445C17.629 7.55453 17.629 7.66857 17.5589 7.73857L16.8578 8.43971H13.7926L8.81506 3.46218L11.0488 1.22849ZM7.98318 4.29406L12.1289 8.43971H3.83749L7.98318 4.29406ZM1.17647 18.6432V16.1203C1.17647 16.0572 1.21376 16.0003 1.26926 15.9788C1.99008 15.6996 2.47435 14.9927 2.47435 14.2195C2.47435 13.4464 1.99004 12.7394 1.26918 12.4602C1.21373 12.4388 1.17647 12.3819 1.17647 12.3188V9.79587C1.17647 9.69681 1.2571 9.61618 1.35616 9.61618H14.7059V18.8229H1.35616C1.2571 18.8229 1.17647 18.7423 1.17647 18.6432ZM18.8235 12.3188C18.8235 12.3819 18.7863 12.4388 18.7308 12.4603C18.01 12.7394 17.5256 13.4464 17.5256 14.2196C17.5256 14.9927 18.0099 15.6997 18.7307 15.9788C18.7862 16.0003 18.8235 16.0572 18.8235 16.1203V18.6432C18.8235 18.7423 18.7429 18.8229 18.6438 18.8229H15.8824V9.61618H18.6438C18.7429 9.61618 18.8235 9.69681 18.8235 9.79587V12.3188Z" fill="#3C3C3C"/>
<path d="M4.11768 11.1758H12.9412V12.3523H4.11768V11.1758Z" fill="#3C3C3C"/>
<path d="M4.11768 13.5293H12.9412V14.7058H4.11768V13.5293Z" fill="#3C3C3C"/>
<path d="M4.11768 15.8809H12.9412V17.0573H4.11768V15.8809Z" fill="#3C3C3C"/>
</g>
<defs>
<clipPath id="clip0">
<rect width="20" height="20" fill="white"/>
</clipPath>
</defs>
</svg>
