<svg width="20" height="20" viewBox="0 0 20 20" fill="none" xmlns="http://www.w3.org/2000/svg">
<path fill-rule="evenodd" clip-rule="evenodd" d="M4.16667 11.6668C3.72464 11.6668 3.30072 11.4912 2.98816 11.1787C2.67559 10.8661 2.5 10.4422 2.5 10.0002C2.5 9.55814 2.67559 9.13421 2.98816 8.82165C3.30072 8.50909 3.72464 8.3335 4.16667 8.3335C4.60869 8.3335 5.03262 8.50909 5.34518 8.82165C5.65774 9.13421 5.83333 9.55814 5.83333 10.0002C5.83333 10.4422 5.65774 10.8661 5.34518 11.1787C5.03262 11.4912 4.60869 11.6668 4.16667 11.6668ZM9.72222 11.6668C9.2802 11.6668 8.85627 11.4912 8.54371 11.1787C8.23115 10.8661 8.05556 10.4422 8.05556 10.0002C8.05556 9.55814 8.23115 9.13421 8.54371 8.82165C8.85627 8.50909 9.2802 8.3335 9.72222 8.3335C10.1642 8.3335 10.5882 8.50909 10.9007 8.82165C11.2133 9.13421 11.3889 9.55814 11.3889 10.0002C11.3889 10.4422 11.2133 10.8661 10.9007 11.1787C10.5882 11.4912 10.1642 11.6668 9.72222 11.6668ZM15.2778 11.6668C14.8358 11.6668 14.4118 11.4912 14.0993 11.1787C13.7867 10.8661 13.6111 10.4422 13.6111 10.0002C13.6111 9.55814 13.7867 9.13421 14.0993 8.82165C14.4118 8.50909 14.8358 8.3335 15.2778 8.3335C15.7198 8.3335 16.1437 8.50909 16.4563 8.82165C16.7689 9.13421 16.9444 9.55814 16.9444 10.0002C16.9444 10.4422 16.7689 10.8661 16.4563 11.1787C16.1437 11.4912 15.7198 11.6668 15.2778 11.6668Z" fill="#737373"/>
</svg>
