<svg width="20" height="20" viewBox="0 0 20 20" fill="none" xmlns="http://www.w3.org/2000/svg">
<path d="M17.0711 2.92892C15.1823 1.04017 12.6711 0 10 0C7.32895 0 4.81768 1.04017 2.92892 2.92892C1.04017 4.81768 0 7.32891 0 10C0 12.6711 1.04017 15.1823 2.92892 17.0711C4.81768 18.9598 7.32891 20 9.99998 20C12.671 20 15.1823 18.9598 17.071 17.0711C18.9598 15.1823 20 12.6711 20 10C20 7.32895 18.9598 4.81768 17.0711 2.92892ZM17.076 12.3169L18.7596 11.0995C18.6199 12.2312 18.2645 13.3131 17.7144 14.2972L17.076 12.3169ZM16.2861 11.4406L13.49 10.5194L12.5193 7.53167L14.2569 5.15654L17.3858 5.16186C18.2533 6.48029 18.7489 8.00652 18.8182 9.60974L16.2861 11.4406ZM10 12.4546L7.66562 10.7585L8.5573 8.01426H11.4428L12.3345 10.7585L10 12.4546ZM6.51102 10.5162L3.71049 11.4232L1.18276 9.58456C1.2565 7.98208 1.75641 6.45722 2.62787 5.1409L5.75599 5.14446L7.48139 7.52968L6.51102 10.5162ZM2.2734 14.2752C1.7263 13.2897 1.37407 12.207 1.2375 11.0748L2.91747 12.2968L2.2734 14.2752ZM16.4618 3.98735L14.3866 3.98383L13.7463 2.00257C14.6618 2.4321 15.5054 3.02205 16.2416 3.75835C16.3168 3.83346 16.3898 3.91005 16.4618 3.98735ZM12.3469 1.48682L13.3095 4.46497L11.571 6.84128H8.43105L6.70596 4.45649L7.67728 1.48049C8.42503 1.27788 9.20441 1.17294 10 1.17294C10.8041 1.17294 11.5918 1.27996 12.3469 1.48682ZM6.27647 1.99213L5.63049 3.97136L3.5552 3.96901C3.62178 3.89797 3.68918 3.82751 3.75835 3.75835C4.50075 3.01595 5.35223 2.42252 6.27647 1.99213ZM3.10443 15.5115L4.07215 12.539L6.8724 11.6321L9.41351 13.4783V16.4219L6.88081 18.262C5.72241 17.8253 4.65991 17.1433 3.75831 16.2416C3.5254 16.0087 3.30767 15.7647 3.10443 15.5115ZM8.31825 18.6675L9.99998 17.4457L11.6817 18.6675C11.1332 18.7728 10.5708 18.8271 9.99998 18.8271C9.42919 18.8271 8.86676 18.7727 8.31825 18.6675ZM13.1192 18.262L10.5865 16.4219V13.4783L13.1249 11.634L15.9204 12.5551L16.8799 15.5311C16.6812 15.7773 16.4686 16.0148 16.2417 16.2417C15.34 17.1433 14.2776 17.8253 13.1192 18.262Z" fill="#737373"/>
</svg>
