<svg width="20" height="20" viewBox="0 0 20 20" fill="none" xmlns="http://www.w3.org/2000/svg">
<g clip-path="url(#clip0)">
<path d="M19.1556 13.5578C19.6607 13.3623 20 12.8645 20 12.3193V9.79635C20 9.04859 19.3916 8.4402 18.6438 8.4402H18.5054C18.9159 7.90874 18.878 7.14027 18.3908 6.65306L16.6069 4.8691C16.2213 4.48357 15.6295 4.37153 15.134 4.59035C14.8679 4.70792 14.5508 4.64859 14.3451 4.44282C14.1393 4.23702 14.08 3.91996 14.1975 3.65388C14.4163 3.15847 14.3043 2.56655 13.9187 2.18098L12.1348 0.397018C11.6061 -0.131649 10.7457 -0.131727 10.2169 0.397018L2.17376 8.4402H1.35616C0.608353 8.4402 0 9.04859 0 9.79635V12.3193C0 12.8645 0.339333 13.3623 0.844392 13.5578C1.11565 13.6629 1.29792 13.929 1.29792 14.22C1.29792 14.511 1.11565 14.7772 0.844392 14.8822C0.339333 15.0778 0 15.5756 0 16.1208V18.6437C0 19.3915 0.608353 19.9998 1.35616 19.9998H18.6438C19.3916 19.9998 20 19.3915 20 18.6437V16.1208C20 15.5756 19.6607 15.0778 19.1556 14.8822C18.8844 14.7771 18.7021 14.511 18.7021 14.22C18.7021 13.929 18.8844 13.6629 19.1556 13.5578ZM11.0488 1.22898C11.1189 1.1589 11.2329 1.1589 11.3029 1.22894L13.0868 3.0129C13.1315 3.05757 13.1453 3.12412 13.1213 3.17859C12.809 3.88569 12.9665 4.72808 13.5131 5.2747C14.0598 5.82137 14.9022 5.97882 15.6093 5.66655C15.6637 5.64255 15.7303 5.65635 15.775 5.70102L17.5589 7.48494C17.629 7.55502 17.629 7.66906 17.5589 7.73906L16.8578 8.4402H13.7926L8.81506 3.46267L11.0488 1.22898ZM7.98318 4.29455L12.1289 8.4402H3.83749L7.98318 4.29455ZM1.17647 18.6437V16.1208C1.17647 16.0576 1.21376 16.0008 1.26926 15.9793C1.99008 15.7001 2.47435 14.9931 2.47435 14.22C2.47435 13.4469 1.99004 12.7399 1.26918 12.4607C1.21373 12.4393 1.17647 12.3824 1.17647 12.3193V9.79635C1.17647 9.69729 1.2571 9.61667 1.35616 9.61667H14.7059V18.8234H1.35616C1.2571 18.8234 1.17647 18.7428 1.17647 18.6437ZM18.8235 12.3193C18.8235 12.3824 18.7863 12.4393 18.7308 12.4607C18.01 12.7399 17.5256 13.4469 17.5256 14.22C17.5256 14.9932 18.0099 15.7002 18.7307 15.9793C18.7862 16.0008 18.8235 16.0577 18.8235 16.1208V18.6437C18.8235 18.7427 18.7429 18.8234 18.6438 18.8234H15.8824V9.61667H18.6438C18.7429 9.61667 18.8235 9.69729 18.8235 9.79635V12.3193Z" fill="#737373"/>
<path d="M4.11768 11.1758H12.9412V12.3523H4.11768V11.1758Z" fill="#737373"/>
<path d="M4.11768 13.5288H12.9412V14.7053H4.11768V13.5288Z" fill="#737373"/>
<path d="M4.11768 15.8818H12.9412V17.0583H4.11768V15.8818Z" fill="#737373"/>
</g>
<defs>
<clipPath id="clip0">
<rect width="20" height="20" fill="white"/>
</clipPath>
</defs>
</svg>
