<svg width="20" height="14" viewBox="0 0 20 14" fill="none" xmlns="http://www.w3.org/2000/svg">
<path fill-rule="evenodd" clip-rule="evenodd" d="M8.57255 11.8225C8.99123 11.5305 9.48958 11.3742 10 11.375C10.5313 11.375 11.0225 11.54 11.4276 11.8225L10 13.25L8.57255 11.8225Z" fill="#737373"/>
<path fill-rule="evenodd" clip-rule="evenodd" d="M9.6638 12.03L10 12.3663L10.3363 12.03C10.1139 11.9897 9.88615 11.9897 9.6638 12.03ZM8.21505 11.31C8.73855 10.9447 9.3617 10.7492 10 10.75C10.6625 10.75 11.2788 10.9563 11.7851 11.31C11.8599 11.3622 11.9224 11.4302 11.9681 11.5092C12.0139 11.5881 12.0418 11.6762 12.0499 11.7671C12.058 11.858 12.0461 11.9495 12.015 12.0354C11.984 12.1212 11.9345 12.1991 11.87 12.2638L10.4425 13.6925C10.3845 13.7507 10.3155 13.7969 10.2396 13.8284C10.1637 13.8599 10.0823 13.8761 10 13.8761C9.91784 13.8761 9.83644 13.8599 9.76051 13.8284C9.68458 13.7969 9.61561 13.7507 9.55755 13.6925L8.13005 12.2625C8.04285 12.175 7.98352 12.0637 7.95955 11.9425C7.93559 11.8213 7.94807 11.6958 7.99542 11.5817C8.04276 11.4676 8.12285 11.3701 8.22557 11.3015C8.32829 11.2329 8.44903 11.1963 8.57255 11.1963V11.8213L8.21505 11.3088V11.31ZM10 8.87501C8.78264 8.87302 7.59778 9.26797 6.62505 10C6.55939 10.0493 6.48467 10.0851 6.40516 10.1055C6.32565 10.1258 6.24291 10.1303 6.16166 10.1187C5.99757 10.0953 5.84951 10.0076 5.75005 9.87501C5.65059 9.7424 5.60789 9.57572 5.63133 9.41162C5.65477 9.24753 5.74244 9.09947 5.87505 9.00001C7.0238 8.13751 8.45255 7.62501 10 7.62501C11.5475 7.62501 12.9763 8.13751 14.125 9.00001C14.1907 9.04926 14.246 9.11095 14.2878 9.18158C14.3297 9.2522 14.3572 9.33037 14.3688 9.41162C14.3804 9.49287 14.3759 9.57561 14.3555 9.65512C14.3351 9.73463 14.2993 9.80935 14.25 9.87501C14.2008 9.94067 14.1391 9.99599 14.0685 10.0378C13.9979 10.0796 13.9197 10.1071 13.8384 10.1187C13.7572 10.1303 13.6744 10.1258 13.5949 10.1055C13.5154 10.0851 13.4407 10.0493 13.375 10C12.4023 9.26797 11.2175 8.87302 10 8.87501ZM10 5.12501C7.7088 5.12501 5.61255 5.94626 3.98255 7.31001C3.85488 7.41006 3.69331 7.45655 3.53199 7.43967C3.37066 7.42279 3.22222 7.34385 3.11803 7.21953C3.01384 7.09522 2.96206 6.93527 2.97363 6.77347C2.98521 6.61168 3.05923 6.46073 3.18005 6.35251C5.09048 4.74894 7.50582 3.87152 10 3.87501C12.595 3.87501 14.975 4.80626 16.8201 6.35251C16.886 6.4042 16.9409 6.46863 16.9815 6.54197C17.022 6.6153 17.0474 6.69605 17.0561 6.7794C17.0649 6.86275 17.0567 6.947 17.0322 7.02715C17.0077 7.10729 16.9674 7.18169 16.9135 7.24592C16.8597 7.31015 16.7935 7.3629 16.7189 7.40102C16.6443 7.43915 16.5627 7.46188 16.4791 7.46786C16.3955 7.47384 16.3116 7.46295 16.2323 7.43583C16.153 7.40871 16.08 7.36592 16.0175 7.31001C14.332 5.89515 12.2007 5.12128 10 5.12501Z" fill="#737373"/>
<path fill-rule="evenodd" clip-rule="evenodd" d="M10.0001 1.37501C6.6788 1.37501 3.64755 2.60751 1.33505 4.64126C1.2742 4.69971 1.20215 4.74523 1.12324 4.77508C1.04433 4.80493 0.960189 4.8185 0.875894 4.81496C0.791598 4.81142 0.708891 4.79085 0.632758 4.7545C0.556625 4.71814 0.488641 4.66674 0.432904 4.6034C0.377167 4.54006 0.33483 4.4661 0.308446 4.38596C0.282062 4.30582 0.272177 4.22117 0.279385 4.13711C0.286594 4.05305 0.310747 3.97132 0.35039 3.89684C0.390033 3.82236 0.444345 3.75669 0.510051 3.70376C3.13098 1.39324 6.50609 0.120458 10.0001 0.125012C13.6376 0.125012 16.9588 1.47626 19.4901 3.70251C19.5536 3.75613 19.6058 3.82188 19.6436 3.89591C19.6814 3.96995 19.704 4.05078 19.7102 4.13368C19.7164 4.21657 19.706 4.29987 19.6795 4.37869C19.6531 4.45751 19.6113 4.53027 19.5564 4.59271C19.5015 4.65515 19.4347 4.70602 19.36 4.74233C19.2852 4.77865 19.2039 4.79968 19.1209 4.8042C19.0379 4.80872 18.9548 4.79664 18.8766 4.76866C18.7983 4.74069 18.7264 4.69737 18.6651 4.64126C16.272 2.53171 13.1902 1.37002 10.0001 1.37501Z" fill="#737373"/>
</svg>
