<svg width="20" height="20" viewBox="0 0 20 20" fill="none" xmlns="http://www.w3.org/2000/svg">
<g clip-path="url(#clip0)">
<path d="M11.8474 2.205C11.3855 1.52581 10.978 0.900944 10.5977 0.330418C10.5433 0.248914 10.4618 0.167411 10.3803 0.113075C10.0543 -0.104268 9.61962 0.00440316 9.40228 0.330418C9.04909 0.900944 8.64157 1.49864 8.15255 2.205C6.00629 5.35648 2.80048 10.1109 2.80048 12.8277C2.80048 14.8109 3.61551 16.604 4.91957 17.9081C6.22363 19.185 8.01671 20 9.99997 20C11.9832 20 13.7763 19.185 15.0804 17.8809C16.3844 16.5768 17.1995 14.7837 17.1995 12.8005C17.1995 10.0837 13.9937 5.35648 11.8474 2.205ZM14.1023 16.9028C13.0428 17.9624 11.6029 18.5873 9.99997 18.5873C8.39706 18.5873 6.95717 17.9352 5.89762 16.9028C4.83807 15.8433 4.21321 14.4034 4.21321 12.8005C4.21321 10.5184 7.28318 5.98134 9.32077 2.96571C9.56528 2.61252 9.78263 2.25934 9.99997 1.96049C10.2173 2.25934 10.4347 2.61252 10.6792 2.96571C12.7168 6.00851 15.7867 10.5184 15.7867 12.8005C15.7867 14.4034 15.1347 15.8433 14.1023 16.9028Z" fill="#737373"/>
<path d="M14.211 12.3113C13.8306 12.2841 13.5046 12.583 13.4774 12.9633C13.4503 13.561 13.2601 14.1315 12.9612 14.6206C12.6624 15.1096 12.2277 15.5443 11.7115 15.8159C11.3855 16.0061 11.2497 16.4408 11.4398 16.7668C11.6572 17.1472 12.0919 17.2558 12.4179 17.0657C13.1514 16.6582 13.7491 16.0605 14.1566 15.3813C14.5913 14.7021 14.8358 13.887 14.863 13.0448C14.8902 12.6645 14.5913 12.3385 14.211 12.3113Z" fill="#737373"/>
</g>
<defs>
<clipPath id="clip0">
<rect width="20" height="20" fill="white"/>
</clipPath>
</defs>
</svg>
