<svg width="16" height="20" viewBox="0 0 16 20" fill="none" xmlns="http://www.w3.org/2000/svg">
<path d="M14.6964 0.625C14.8906 0.625008 15.0782 0.695331 15.2246 0.822965C15.3709 0.950598 15.4661 1.12691 15.4925 1.31929L15.5 1.42857V18.5714C15.4999 18.775 15.4226 18.971 15.2836 19.1198C15.1446 19.2685 14.9543 19.359 14.7512 19.3729C14.5481 19.3868 14.3473 19.323 14.1893 19.1945C14.0314 19.0661 13.9281 18.8824 13.9004 18.6807L13.8929 18.5714V13.2143H11.4821C11.288 13.2143 11.1003 13.144 10.954 13.0163C10.8077 12.8887 10.7125 12.7124 10.6861 12.52L10.6786 12.4107V4.64286C10.6786 3.57726 11.1019 2.5553 11.8554 1.8018C12.6089 1.04831 13.6308 0.625 14.6964 0.625ZM8.26786 0.625C8.46204 0.625008 8.64965 0.695331 8.796 0.822965C8.94234 0.950598 9.03752 1.12691 9.06393 1.31929L9.07143 1.42857V5.71429C9.07143 7.80679 7.57143 9.54786 5.58929 9.925V18.5714C5.58922 18.775 5.51188 18.971 5.37289 19.1198C5.23389 19.2685 5.04361 19.359 4.84049 19.3729C4.63736 19.3868 4.43654 19.323 4.27861 19.1945C4.12067 19.0661 4.01739 18.8824 3.98964 18.6807L3.98214 18.5714V9.925C3.04011 9.74489 2.18566 9.25414 1.55538 8.53122C0.925105 7.8083 0.555397 6.89493 0.505357 5.93714L0.5 5.71429V1.42857C0.500062 1.22497 0.577405 1.02899 0.716399 0.880223C0.855394 0.731454 1.04568 0.640992 1.2488 0.627115C1.45192 0.613238 1.65274 0.676981 1.81068 0.805463C1.96861 0.933946 2.07189 1.11759 2.09964 1.31929L2.10714 1.42857V5.71429C2.10714 6.91429 2.89571 7.92893 3.98214 8.27071V1.42857C3.98221 1.22497 4.05955 1.02899 4.19854 0.880223C4.33754 0.731454 4.52782 0.640992 4.73094 0.627115C4.93407 0.613238 5.13488 0.676981 5.29282 0.805463C5.45076 0.933946 5.55403 1.11759 5.58179 1.31929L5.58929 1.42857V8.26964C6.10057 8.10851 6.5518 7.79779 6.8847 7.3776C7.21759 6.95742 7.41687 6.44708 7.45679 5.9125L7.46429 5.71429V1.42857C7.46429 1.21545 7.54895 1.01106 7.69965 0.860361C7.85035 0.709662 8.05474 0.625 8.26786 0.625ZM13.8929 11.6071V2.36929C13.4524 2.52517 13.0667 2.80557 12.7825 3.17645C12.4984 3.54733 12.328 3.99273 12.2921 4.45857L12.2857 4.64286V11.6071H13.8929V2.36929V11.6071Z" fill="#737373"/>
</svg>
